<svg width="23" height="26" viewBox="0 0 23 26" fill="none" xmlns="http://www.w3.org/2000/svg">
<path d="M1 8.2C1 4.80588 1 3.10883 2.15327 2.05442C3.30654 1 5.16269 1 8.875 1H14.125C17.8373 1 19.6934 1 20.8467 2.05442C22 3.10883 22 4.80588 22 8.2V17.8C22 21.1941 22 22.8911 20.8467 23.9456C19.6934 25 17.8373 25 14.125 25H8.875C5.16269 25 3.30654 25 2.15327 23.9456C1 22.8911 1 21.1941 1 17.8V8.2Z" fill="white" stroke="white" stroke-width="2"/>
<path d="M22 18.032H6.14872C4.92029 18.032 4.30607 18.032 3.80213 18.1388C2.43459 18.4285 1.36643 19.2733 1 20.3546" stroke="#A8EB75" stroke-width="2" stroke-linecap="round"/>
<path d="M6.04004 7.19336H16.96" stroke="#A8EB75" stroke-width="2" stroke-linecap="round"/>
<path d="M6.04004 11.0644H12.76" stroke="#A8EB75" stroke-width="2" stroke-linecap="round"/>
</svg>
