<svg width="71" height="56" viewBox="0 0 71 56" fill="none" xmlns="http://www.w3.org/2000/svg">
<path d="M36 16.333V32.6663M36 32.6663L43 25.6663M36 32.6663L29 25.6663" stroke="#939393" stroke-width="2" stroke-linecap="round" stroke-linejoin="round"/>
<path d="M45.3332 39.667H35.9998H26.6665" stroke="#939393" stroke-width="2" stroke-linecap="round"/>
<path d="M12.6665 28.0003C12.6665 17.0009 12.6665 11.5012 16.0836 8.08409C19.5007 4.66699 25.0004 4.66699 35.9998 4.66699C46.9992 4.66699 52.4991 4.66699 55.916 8.08409C59.3332 11.5012 59.3332 17.0009 59.3332 28.0003C59.3332 38.9997 59.3332 44.4996 55.916 47.9165C52.4991 51.3337 46.9992 51.3337 35.9998 51.3337C25.0004 51.3337 19.5007 51.3337 16.0836 47.9165C12.6665 44.4996 12.6665 38.9997 12.6665 28.0003Z" stroke="#939393" stroke-width="2"/>
</svg>
